<?xml version="1.0" encoding="utf-8"?>
<!-- Generator: Adobe Illustrator 14.0.0, SVG Export Plug-In . SVG Version: 6.00 Build 43363)  -->
<!DOCTYPE svg PUBLIC "-//W3C//DTD SVG 1.1//EN" "http://www.w3.org/Graphics/SVG/1.1/DTD/svg11.dtd">
<svg version="1.1" id="Layer_1" xmlns="http://www.w3.org/2000/svg" xmlns:xlink="http://www.w3.org/1999/xlink" x="0px" y="0px"
	 width="283.464px" height="283.465px" viewBox="-70.866 -70.866 283.464 283.465"
	 enable-background="new -70.866 -70.866 283.464 283.465" xml:space="preserve">
<path fill="#A9C62B" d="M97.475-0.901c-4.453,0-8.064-3.611-8.064-8.066V-31.1c0-4.455,3.611-8.066,8.064-8.066
	c4.455,0,8.066,3.611,8.066,8.066v22.135C105.542-4.51,101.932-0.901,97.475-0.901L97.475-0.901z"/>
<path fill="#A9C62B" d="M195.241,76.113h-22.137c-4.453,0-8.062-3.609-8.062-8.066c0-4.453,3.611-8.062,8.062-8.062h22.137
	c4.457,0,8.062,3.609,8.062,8.062C203.303,72.504,199.698,76.113,195.241,76.113L195.241,76.113z"/>
<path fill="#A9C62B" d="M152.321,20.166c-2.205,0-4.404-0.9-5.994-2.668c-2.98-3.311-2.711-8.41,0.594-11.391l16.453-14.812
	c3.316-2.98,8.414-2.711,11.389,0.6c2.98,3.309,2.713,8.408-0.596,11.389l-16.453,14.812
	C156.174,19.482,154.243,20.166,152.321,20.166L152.321,20.166z"/>
<path fill="#A9C62B" d="M173.102,149.373c-1.926,0-3.854-0.684-5.393-2.07l-16.453-14.811c-3.309-2.984-3.576-8.082-0.596-11.391
	c2.979-3.312,8.078-3.578,11.389-0.598l16.453,14.812c3.305,2.979,3.574,8.082,0.594,11.389
	C177.506,148.472,175.307,149.373,173.102,149.373L173.102,149.373z"/>
<path fill="#A9C62B" d="M37.34,13.914c-1.924,0-3.852-0.684-5.394-2.072L15.497-2.973c-3.31-2.98-3.578-8.08-0.596-11.391
	c2.979-3.311,8.08-3.576,11.39-0.596l16.45,14.814c3.31,2.98,3.578,8.08,0.596,11.391C41.745,13.013,39.546,13.914,37.34,13.914
	L37.34,13.914z"/>
<path fill="#636572" d="M88.229,70.252c-3.971-23.506-25.358-41.516-51.062-41.516c-25.706,0-47.09,18.01-51.06,41.516
	c-26.551,2.062-47.492,23.363-47.492,49.25c0,27.25,23.202,49.418,51.722,49.418l46.832-0.043l46.83,0.043
	c28.523,0,51.719-22.168,51.719-49.418C135.717,93.615,114.78,72.314,88.229,70.252z M83.997,152.787h-46.83h-46.83
	c-19.624,0-35.59-14.93-35.59-33.285c0-18.352,15.966-33.283,35.59-33.283c0.782,0,1.642,0.033,2.624,0.104l8.62,0.594v-8.641
	l-0.004-0.291c0.098-18.275,16.028-33.117,35.59-33.117c19.562,0,35.492,14.84,35.588,33.117l-0.002,0.291v8.641l8.621-0.594
	c0.98-0.07,1.84-0.104,2.623-0.104c19.627,0,35.592,14.932,35.592,33.283C119.588,137.857,103.624,152.787,83.997,152.787z"/>
<g>
	<path fill="#A9C62B" stroke="#A9C62B" stroke-miterlimit="10" d="M69.449,39.58c6.899-5.416,15.585-8.66,25.015-8.66
		c22.377,0,40.586,18.207,40.586,40.588c0,8.297-2.508,16.02-6.799,22.457c3.291,5.189,5.607,10.992,6.717,17.193
		c10.021-10.234,16.213-24.23,16.213-39.65c0-31.275-25.443-56.719-56.717-56.719c-15.691,0-29.911,6.406-40.188,16.738
		C59.825,33.39,64.945,36.129,69.449,39.58z"/>
</g>
</svg>
